<svg width="136" height="20" viewBox="0 0 136 20" fill="none" xmlns="http://www.w3.org/2000/svg">
<path d="M9.36 6.288C9.888 7.776 10.08 9 10.032 10.536C9.936 13.032 9.384 14.952 8.376 16.176C7.536 17.184 6.192 17.616 4.872 17.328C4.32 17.208 3.936 17.04 3.384 16.704C2.016 15.792 0.912 14.04 0.456 12.096C0.096 10.488 0.072 8.232 0.384 6.264C0.816 3.648 1.32 2.184 2.016 1.584C2.352 1.272 2.952 1.128 3.384 1.272C3.504 1.32 3.696 1.368 3.792 1.368C4.896 1.584 5.64 1.896 6.528 2.472C7.08 2.832 7.464 3.192 7.872 3.696C8.592 4.608 9.024 5.376 9.36 6.288ZM7.224 11.76C7.656 9.432 7.128 6.48 5.28 4.896C4.92 4.584 4.272 4.2 3.768 4.176L3.624 4.152L3.504 4.56C3.096 6.072 2.88 7.656 2.88 9.12C2.88 10.728 3.096 11.88 3.576 12.816C4.08 13.848 5.688 15.72 6.6 13.992C6.864 13.44 6.984 13.056 7.224 11.76ZM19.3783 8.304C19.5463 8.832 19.5703 9.744 19.4263 10.2C18.8983 11.976 17.5303 13.416 15.2263 14.568L14.7943 14.808L14.8903 15.48C15.0583 16.944 15.0583 17.112 14.7703 17.544C14.5783 17.808 14.2903 18.024 13.9543 18.12C13.6423 18.192 13.6663 18.192 13.3783 18.144V18.12C13.1143 18.072 12.8023 17.904 12.6343 17.712C12.4183 17.448 12.3223 17.184 12.2743 16.704C12.2503 16.464 12.2023 16.056 12.1783 15.816L12.1303 15.36L11.9143 15.192C11.3863 14.76 11.3143 13.992 11.7223 13.392L11.8663 13.176L11.6503 11.232C11.5303 10.176 11.3143 8.376 11.1943 7.272C10.8823 4.8 10.8583 4.128 11.0503 3.576C11.2663 2.904 11.7703 2.544 12.4423 2.592C12.8263 2.616 13.0183 2.712 13.7383 3.288C14.2663 3.72 14.8183 4.104 16.4743 5.112C18.2263 6.192 18.9943 7.032 19.3783 8.304ZM16.6183 9.936C17.0023 9.192 16.7623 8.592 15.7783 7.896C15.3223 7.56 13.9303 6.72 13.8823 6.744C13.8823 6.744 14.0023 7.92 14.1463 9.312C14.3143 10.704 14.4343 11.856 14.4343 11.88C14.4343 11.928 14.7943 11.736 15.1543 11.496C15.7783 11.064 16.3783 10.44 16.6183 9.936ZM22.4503 17.16C21.8983 17.016 21.5143 16.704 21.2503 16.224C21.0343 15.792 20.9383 15.504 20.8663 14.808C20.7943 14.328 20.6983 12.24 20.6983 11.592C20.6983 11.4 20.6983 11.4 20.4103 11.256C19.5703 10.824 19.4023 9.744 20.0743 9.096C20.1943 8.976 20.3383 8.88 20.4343 8.832L20.5783 8.784L20.5543 6.768V4.728L20.4343 4.584C20.2903 4.368 20.1943 3.936 20.2423 3.72C20.3623 3.096 20.8183 2.64 21.4423 2.544C21.7543 2.52 22.6183 2.664 24.0583 3C24.7063 3.144 25.5463 3.336 25.9063 3.408C27.5383 3.696 29.2183 4.056 29.4583 4.128C29.7943 4.272 30.1543 4.656 30.2503 5.016C30.4423 5.64 30.1063 6.336 29.5303 6.576C29.1463 6.768 28.9303 6.744 27.6343 6.504C26.9623 6.36 26.0263 6.192 25.5223 6.096C25.0423 6 24.3223 5.856 23.9623 5.76L23.2903 5.616V7.128V8.664L24.3463 8.64C24.9223 8.616 25.8823 8.592 26.5063 8.568C27.7543 8.496 27.9943 8.52 28.3543 8.76C28.7623 9 28.9543 9.36 28.9543 9.888C28.9543 10.272 28.8103 10.608 28.4983 10.872C28.0903 11.232 27.8983 11.256 25.0183 11.352C24.1543 11.376 23.4583 11.4 23.4343 11.424C23.4103 11.448 23.5303 14.352 23.5543 14.424C23.6023 14.568 25.0183 14.184 27.6103 13.32C29.5303 12.696 29.6983 12.648 30.1543 12.864C31.1143 13.32 31.2103 14.64 30.3223 15.216C29.8903 15.48 25.7623 16.8 24.4903 17.088C23.7463 17.232 22.8343 17.28 22.4503 17.16ZM43.9221 16.272C43.6341 16.176 43.7061 16.2 41.2581 14.376C40.0821 13.488 38.1381 12.024 36.9621 11.112C35.7621 10.224 34.6821 9.384 34.5621 9.288L34.3221 9.12L34.3701 9.432C34.4901 10.704 34.5621 13.248 34.4901 13.872C34.4181 14.52 34.3701 14.712 34.1061 15C33.4341 15.72 32.3301 15.552 31.8981 14.664C31.7781 14.4 31.7781 14.376 31.7781 13.56C31.8021 12.144 31.7061 9.936 31.5381 8.496C31.3701 7.152 31.3221 6.312 31.3941 6.024C31.4901 5.544 31.7541 5.208 32.1861 4.968C32.3541 4.872 32.4741 4.872 32.7861 4.872C33.1461 4.872 33.2181 4.872 33.5061 5.016C33.8181 5.16 34.5381 5.736 35.7381 6.744C36.0981 7.056 37.3941 8.064 38.6181 8.976C39.8181 9.888 41.2101 10.944 41.6901 11.304C42.1701 11.664 42.5541 11.952 42.5781 11.952C42.5781 11.928 42.5301 11.376 42.4341 10.728C42.3381 10.056 42.2661 9.408 42.2421 9.264C42.1461 8.544 41.6901 5.352 41.4501 4.008C41.3541 3.384 41.5701 2.856 42.0501 2.544C42.7461 2.064 43.7061 2.352 44.0421 3.144C44.1141 3.384 44.7141 7.176 44.9301 8.904C45.0261 9.624 45.2181 11.064 45.5301 13.224C45.7941 15.072 45.7941 15.24 45.5541 15.672C45.2181 16.2 44.4741 16.464 43.9221 16.272ZM58.4376 12.096C58.6056 12.912 58.3656 13.848 57.7896 14.616C57.4536 15.048 56.9976 15.432 56.2536 15.936C54.8136 16.896 52.7256 17.88 49.5576 19.128C48.3096 19.608 48.1416 19.656 47.8296 19.68C47.4936 19.704 47.4456 19.68 47.1816 19.56C46.7016 19.32 46.4376 18.912 46.4376 18.384C46.4376 17.88 46.6536 17.496 47.0616 17.232C47.1816 17.16 47.5416 16.992 47.8536 16.872C48.1656 16.752 48.4296 16.656 48.4536 16.632C48.4776 16.608 48.4776 16.536 48.4536 16.488C48.4296 16.416 48.3576 16.08 48.3336 15.696C48.2856 15.336 48.1896 14.64 48.1176 14.16C48.0456 13.656 47.9496 12.984 47.9016 12.648L47.8056 12.024L47.5896 11.952C47.1096 11.784 46.7736 11.28 46.7736 10.752C46.7736 10.344 46.8936 10.032 47.2296 9.72L47.4696 9.48L47.2776 7.92C47.0856 6.504 46.7976 3.696 46.7256 2.712C46.6776 2.256 46.7736 1.824 46.9416 1.56C47.1336 1.296 47.7336 0.743999 47.9496 0.647999C48.2616 0.503999 48.7176 0.503999 49.0296 0.647999C49.1496 0.696 49.4136 0.887999 49.6296 1.08C49.8456 1.272 50.3016 1.656 50.6376 1.944C51.9336 3.048 52.4376 3.624 52.8696 4.488C53.2056 5.136 53.3016 5.592 53.3016 6.24C53.3016 7.08 53.0616 7.8 52.4856 8.544L52.2216 8.928L52.4376 8.952C52.5576 8.976 52.9896 9.024 53.3976 9.048C54.9816 9.216 56.2776 9.624 57.1416 10.248C57.7656 10.68 58.2936 11.448 58.4376 12.096ZM49.9416 7.296C49.9656 7.368 50.2536 7.056 50.4456 6.744C50.5176 6.624 50.5656 6.432 50.5896 6.288C50.6136 6.072 50.5896 6 50.4456 5.712C50.3016 5.4 49.7976 4.752 49.6776 4.704C49.6536 4.704 49.6296 4.752 49.6536 4.824C49.6536 4.896 49.7256 5.472 49.7736 6.096C49.8456 6.72 49.9176 7.248 49.9416 7.296ZM51.9816 15.168C54.4296 14.016 55.7496 13.152 55.7496 12.672C55.7496 12.504 55.2696 12.24 54.6216 12.024C54.2376 11.904 53.4696 11.784 52.7976 11.736C52.1496 11.664 50.5896 11.664 50.5416 11.736C50.5176 11.76 51.0456 15.6 51.0696 15.6C51.0696 15.6 51.4776 15.408 51.9816 15.168ZM62.1559 16.584C61.6999 16.488 61.3639 16.224 61.1479 15.84C60.9799 15.528 60.9799 14.952 61.1239 14.664C61.2919 14.352 61.5079 14.136 61.7959 14.016C62.0119 13.896 62.1079 13.872 62.8279 13.848C64.4359 13.752 65.5399 13.656 66.4759 13.464C66.9079 13.368 67.4599 13.2 67.4599 13.152C67.4599 13.128 67.0759 12.96 66.6199 12.792C66.0199 12.576 65.0359 12.336 63.4519 12C60.5239 11.4 59.4199 11.04 58.6039 10.44C57.7639 9.792 57.3559 8.76 57.5719 7.8C57.8599 6.528 59.0599 5.184 60.9799 3.984C62.4439 3.072 63.4039 2.76 64.6519 2.736C65.2999 2.736 65.3959 2.76 65.7319 2.88C65.9479 2.952 66.2599 3.072 66.4279 3.168C66.7879 3.408 67.2679 3.912 67.4599 4.272C67.7959 4.92 67.9639 5.88 67.9159 6.936C67.9159 7.44 67.8919 7.584 67.7959 7.8C67.6039 8.256 67.0759 8.616 66.5719 8.616C66.0679 8.616 65.5879 8.28 65.3719 7.824C65.2519 7.56 65.2279 7.488 65.2039 6.672C65.1799 5.832 65.1319 5.568 64.9879 5.496C64.8919 5.424 64.3399 5.448 64.0279 5.52C63.4759 5.664 62.4199 6.24 61.6039 6.84C61.2199 7.128 60.4999 7.848 60.3559 8.112L60.2599 8.28L60.3559 8.352C60.7159 8.568 61.9159 8.904 64.0039 9.336C67.1239 10.008 68.3239 10.392 69.2359 11.088C70.0759 11.712 70.4599 12.624 70.2679 13.536C70.0999 14.472 69.5239 15.144 68.5159 15.648C67.6759 16.08 66.2119 16.344 63.8599 16.512C63.3079 16.536 62.7559 16.584 62.6119 16.608C62.4679 16.608 62.2519 16.608 62.1559 16.584ZM75.621 17.352C75.477 17.304 75.285 17.16 75.189 17.04C74.853 16.656 74.877 16.752 74.541 13.488C74.397 12.096 73.941 6.744 73.941 6.432C73.941 6.288 73.917 6.192 73.869 6.168C73.797 6.144 71.925 6.36 70.965 6.504C70.437 6.576 70.269 6.576 70.077 6.528C69.357 6.384 68.925 5.88 68.925 5.208C68.925 4.728 69.141 4.368 69.549 4.08C69.861 3.888 70.293 3.816 72.357 3.576L73.941 3.408L73.989 3.24C74.061 2.976 74.421 2.616 74.709 2.472C75.333 2.208 76.101 2.472 76.413 3.072L76.509 3.24L76.749 3.216C76.869 3.192 77.589 3.168 78.333 3.12C79.413 3.048 79.725 3.048 79.941 3.096C80.589 3.216 81.021 3.744 81.021 4.392C81.021 5.088 80.541 5.592 79.821 5.736C79.653 5.76 78.933 5.808 78.189 5.856C77.445 5.904 76.797 5.928 76.725 5.952C76.605 5.976 76.605 5.808 76.749 7.584C76.965 10.368 77.181 12.624 77.349 14.232C77.445 15.216 77.517 16.128 77.517 16.248C77.445 16.752 77.157 17.184 76.701 17.376C76.413 17.52 75.933 17.496 75.621 17.352ZM90.9673 9.288C91.2313 10.632 91.8553 15.864 91.7833 16.224C91.6873 16.656 91.3993 17.04 91.0393 17.232C90.7993 17.328 90.2233 17.352 89.9353 17.256C89.6473 17.16 89.3113 16.8 89.1913 16.488C89.1433 16.344 89.0713 16.008 89.0473 15.72C89.0233 15.456 88.9753 15.216 88.9513 15.192C88.9273 15.168 88.5913 15.288 88.1593 15.456C86.6233 16.056 85.5913 16.368 84.6313 16.488C84.0073 16.56 82.9513 16.512 82.4953 16.392C81.7753 16.2 81.2713 15.768 80.9593 15.168C80.6713 14.544 80.6473 13.968 80.9113 13.224C81.5113 11.52 83.9113 9.792 86.1433 9.432C86.7193 9.336 87.4873 9.36 87.9673 9.48C88.1593 9.528 88.2553 9.528 88.2553 9.48C88.2553 9.36 87.9193 8.112 87.8233 7.896C87.6793 7.56 87.3433 7.08 87.1753 6.888C87.0313 6.768 86.9593 6.744 86.7193 6.744C86.4553 6.72 86.3593 6.744 86.1433 6.84C85.7593 7.008 85.4953 7.224 85.2793 7.536C84.9433 8.016 84.5353 8.208 84.0073 8.184C83.3353 8.136 82.8793 7.656 82.7833 6.96C82.6633 5.952 84.0793 4.584 85.6873 4.128C86.1673 3.984 87.1033 3.984 87.5833 4.104C88.3753 4.32 88.9753 4.752 89.5273 5.472C90.2473 6.432 90.5833 7.32 90.9673 9.288ZM88.0153 12.576C88.0873 12.552 87.8713 12.336 87.6553 12.24C87.3673 12.072 86.7193 12.072 86.2153 12.192C85.4713 12.384 84.5353 12.912 83.9593 13.464C83.7433 13.68 83.6713 13.776 83.7193 13.8C83.8153 13.848 84.2953 13.8 84.8953 13.68C85.2073 13.608 85.6633 13.488 85.9033 13.392C86.3593 13.248 87.9193 12.648 88.0153 12.576ZM97.5116 17.352C97.3676 17.304 97.1756 17.16 97.0796 17.04C96.7436 16.656 96.7676 16.752 96.4316 13.488C96.2876 12.096 95.8316 6.744 95.8316 6.432C95.8316 6.288 95.8076 6.192 95.7596 6.168C95.6876 6.144 93.8156 6.36 92.8556 6.504C92.3276 6.576 92.1596 6.576 91.9676 6.528C91.2476 6.384 90.8156 5.88 90.8156 5.208C90.8156 4.728 91.0316 4.368 91.4396 4.08C91.7516 3.888 92.1836 3.816 94.2476 3.576L95.8316 3.408L95.8796 3.24C95.9516 2.976 96.3116 2.616 96.5996 2.472C97.2236 2.208 97.9916 2.472 98.3036 3.072L98.3996 3.24L98.6396 3.216C98.7596 3.192 99.4796 3.168 100.224 3.12C101.304 3.048 101.616 3.048 101.832 3.096C102.48 3.216 102.912 3.744 102.912 4.392C102.912 5.088 102.432 5.592 101.712 5.736C101.544 5.76 100.824 5.808 100.08 5.856C99.3356 5.904 98.6876 5.928 98.6156 5.952C98.4956 5.976 98.4956 5.808 98.6396 7.584C98.8556 10.368 99.0716 12.624 99.2396 14.232C99.3356 15.216 99.4076 16.128 99.4076 16.248C99.3356 16.752 99.0476 17.184 98.5916 17.376C98.3036 17.52 97.8236 17.496 97.5116 17.352ZM104.842 16.56C104.41 16.392 104.074 16.056 103.954 15.648C103.906 15.48 103.738 13.92 103.474 11.544C103.306 9.912 103.234 8.928 103.234 8.4C103.234 7.92 103.234 7.848 103.354 7.608C103.594 7.08 104.026 6.792 104.554 6.792C105.106 6.792 105.586 7.104 105.802 7.584C105.874 7.776 105.898 8.04 105.994 8.976C106.09 10.224 106.282 12.336 106.474 13.992C106.618 15.24 106.618 15.432 106.498 15.744C106.306 16.272 105.874 16.584 105.322 16.608C105.13 16.632 104.938 16.608 104.842 16.56ZM103.882 5.88C103.474 5.784 103.09 5.448 102.922 5.088C102.826 4.824 102.826 4.296 102.946 4.032C103.09 3.72 103.306 3.504 103.618 3.336C104.146 3.072 104.842 3.216 105.226 3.648C105.706 4.2 105.682 5.016 105.178 5.52C104.866 5.832 104.29 5.976 103.882 5.88ZM120.216 9.048C120.432 9.888 120.384 10.896 120.072 11.712C119.328 13.752 116.856 15.456 114.024 15.84C113.424 15.936 112.176 15.936 111.6 15.84C110.016 15.6 108.792 14.856 108 13.656C107.472 12.864 107.256 12.144 107.208 11.184C107.16 10.128 107.376 9.264 107.904 8.232C108.312 7.464 108.696 6.96 109.536 6.144C110.184 5.496 110.304 5.4 110.808 5.112C111.792 4.56 112.56 4.32 113.04 4.392C113.352 4.44 113.712 4.632 113.928 4.848L114.096 5.064L114.648 5.112C116.712 5.328 118.32 6.048 119.28 7.248C119.664 7.728 120.072 8.52 120.216 9.048ZM117.456 10.944C117.576 10.68 117.6 10.608 117.6 10.176C117.6 9.72 117.576 9.648 117.456 9.408C117.192 8.832 116.592 8.352 115.776 8.088C115.056 7.872 114.888 7.848 113.256 7.824L111.696 7.8L111.168 8.328C110.472 9.072 109.8 10.104 109.944 11.184C110.064 12.072 110.712 12.84 111.576 13.08C112.176 13.224 113.256 13.248 114.048 13.08C114.84 12.936 115.656 12.6 116.304 12.168C116.736 11.88 117.288 11.28 117.456 10.944ZM133.547 16.272C133.259 16.176 133.331 16.2 130.883 14.376C129.707 13.488 127.763 12.024 126.587 11.112C125.387 10.224 124.307 9.384 124.187 9.288L123.947 9.12L123.995 9.432C124.115 10.704 124.187 13.248 124.115 13.872C124.043 14.52 123.995 14.712 123.731 15C123.059 15.72 121.955 15.552 121.523 14.664C121.403 14.4 121.403 14.376 121.403 13.56C121.427 12.144 121.331 9.936 121.163 8.496C120.995 7.152 120.947 6.312 121.019 6.024C121.115 5.544 121.379 5.208 121.811 4.968C121.979 4.872 122.099 4.872 122.411 4.872C122.771 4.872 122.843 4.872 123.131 5.016C123.443 5.16 124.163 5.736 125.363 6.744C125.723 7.056 127.019 8.064 128.243 8.976C129.443 9.888 130.835 10.944 131.315 11.304C131.795 11.664 132.179 11.952 132.203 11.952C132.203 11.928 132.155 11.376 132.059 10.728C131.963 10.056 131.891 9.408 131.867 9.264C131.771 8.544 131.315 5.352 131.075 4.008C130.979 3.384 131.195 2.856 131.675 2.544C132.371 2.064 133.331 2.352 133.667 3.144C133.739 3.384 134.339 7.176 134.555 8.904C134.651 9.624 134.843 11.064 135.155 13.224C135.419 15.072 135.419 15.24 135.179 15.672C134.843 16.2 134.099 16.464 133.547 16.272Z" fill="#5094FC"/>
</svg>
